<svg id="Livello_1" data-name="Livello 1" xmlns="http://www.w3.org/2000/svg" viewBox="0 0 1201.43 1133.86"><defs><style>.cls-1{fill:#fff;}</style></defs><rect width="1201.43" height="1133.86"/><path class="cls-1" d="M1024.16,1035.87,548.22,0l-392,1049.87h-.15a147,147,0,0,1-132.83,84h252a63,63,0,0,1-59-40.76,48.15,48.15,0,0,1,.27-33.78l149.67-401.4h336l193.09,400.75a28.24,28.24,0,0,1,2.89,12.13v.07a63,63,0,0,1-63,63h343C1110.35,1133.86,1050.7,1093.7,1024.16,1035.87ZM380.24,629.92,520.22,238l168,391.95Z"/></svg>