<svg id="Livello_1" data-name="Livello 1" xmlns="http://www.w3.org/2000/svg" viewBox="0 0 1134 1133.86"><defs><style>.cls-1{fill:#fff;}</style></defs><rect width="1134" height="1133.86"/><path class="cls-1" d="M755.72,0C386.4,0,31.38,265.23,8.44,614.46,7.56,641.34,6,666,6,692.81,6,877.66,116.66,1036,273.61,1101.61a1.57,1.57,0,0,0,.3.12q10.68,4.44,21.61,8.31a199.7,199.7,0,0,0,61,9.47c110.72,0,200.46-89.74,200.46-200.46q0-5.55-.3-11A215.45,215.45,0,0,1,257,818.63a375.76,375.76,0,0,1-18.18-51.26c-.82-2.94-1.59-5.89-2.33-8.87a379.51,379.51,0,0,1-11-76.73c-.23-5.25-.34-10.54-.34-15.84a379.26,379.26,0,0,1,31.6-151.85L975.07,996.55V1134h157.5V0ZM358.41,374.65a492,492,0,0,1,116-76.29c70.84-28.42,147.59-44.75,225.42-46.24,3.9-.09,7.8-.12,11.7-.12H975.07V788.81Z"/></svg>